<svg width="382" height="119" viewBox="0 0 382 119" fill="none" xmlns="http://www.w3.org/2000/svg">
<path d="M38.3787 48.1022H56.1477V75.3448H30.3875V56.0991C30.3875 51.6912 33.9606 48.1022 38.3787 48.1022Z" fill="#15467B"/>
<path d="M30.3875 91.0978H56.1718V109.886C56.1718 114.559 52.3814 118.34 47.6977 118.34H38.8615C34.1778 118.34 30.3875 114.559 30.3875 109.886V91.0978Z" fill="#208CCC"/>
<path d="M30.4356 115.739C30.508 115.811 30.5805 115.907 30.6529 115.98L30.4115 115.739L28.7939 114.125L1.51272 86.9065C-0.394548 85.1482 -0.515253 82.2095 1.24716 80.3066C1.34373 80.2103 1.41615 80.1139 1.51272 80.0417L28.7698 52.8473L30.3873 51.2334L30.6288 50.9926C30.5563 51.0648 30.4839 51.1612 30.4115 51.2334C29.3251 52.5101 28.7456 54.148 28.7698 55.81V111.138C28.7698 112.824 29.3492 114.438 30.4356 115.739Z" fill="#15467B"/>
<path d="M84.9981 86.9306L57.7411 114.125L56.1235 115.739L55.8821 115.98C55.9545 115.907 56.0269 115.811 56.0994 115.739C57.1858 114.462 57.7652 112.824 57.7652 111.138V55.8341C57.7652 55.81 57.7652 55.7618 57.7652 55.7377V27.1222L84.9498 0L85.0223 80.0658L84.9981 86.9306Z" fill="#208CCC"/>
<path d="M115.702 65.5938V31.5149H122.145V65.7403L115.702 65.5938ZM118.96 65.5938V59.371H127.16C128.93 59.489 130.68 58.9406 132.066 57.8336C132.66 57.2883 133.125 56.618 133.429 55.8712C133.733 55.1243 133.867 54.3194 133.823 53.5143V43.4481C133.87 42.6372 133.737 41.8259 133.434 41.0727C133.13 40.3194 132.663 39.643 132.066 39.0921C130.68 37.9851 128.93 37.4366 127.16 37.5547H118.887V31.5149H126.941C130.543 31.2795 134.101 32.4174 136.898 34.6995C138.133 35.8546 139.1 37.2655 139.733 38.8336C140.365 40.4017 140.647 42.089 140.559 43.7775V53.4777C140.602 55.7092 140.072 57.9146 139.021 59.8835C137.992 61.746 136.422 63.2522 134.518 64.2028C132.175 65.3045 129.602 65.8316 127.014 65.7403L118.96 65.5938Z" fill="#15467B"/>
<path d="M145.904 65.5938V31.5149H152.347V65.7768L145.904 65.5938ZM148.466 51.7939V45.6077H160.364C160.828 45.6297 161.292 45.5378 161.713 45.3401C162.134 45.1423 162.5 44.8446 162.78 44.473C163.423 43.6488 163.76 42.6264 163.732 41.5812C163.773 40.5288 163.45 39.4946 162.816 38.6529C162.519 38.294 162.143 38.0083 161.718 37.8178C161.293 37.6274 160.829 37.5374 160.364 37.5546H148.466V31.5149H160.876C162.622 31.4773 164.344 31.9205 165.855 32.7961C167.293 33.6718 168.45 34.9424 169.186 36.4566C169.992 38.1339 170.394 39.9769 170.358 41.8374C170.401 43.7028 169.986 45.5503 169.15 47.2183C168.439 48.7383 167.292 50.0125 165.855 50.8788C164.341 51.7434 162.619 52.174 160.876 52.1233L148.466 51.7939ZM163.988 65.5938L155.678 50.769L162.56 49.6708L171.786 65.5938H163.988Z" fill="#15467B"/>
<path d="M187.198 65.9233C184.913 65.9804 182.654 65.4378 180.645 64.3493C178.788 63.3384 177.263 61.8131 176.252 59.9567C175.192 57.9122 174.663 55.6338 174.714 53.3313V43.6311C174.658 41.3164 175.187 39.025 176.252 36.969C177.263 35.1126 178.788 33.5874 180.645 32.5765C182.684 31.5527 184.934 31.0194 187.216 31.0194C189.498 31.0194 191.748 31.5527 193.787 32.5765C195.639 33.5811 197.154 35.1088 198.143 36.969C199.236 39.0159 199.779 41.3116 199.718 43.6311V53.4777C199.776 55.7853 199.233 58.0683 198.143 60.1031C197.154 61.9634 195.639 63.4912 193.787 64.4957C191.753 65.5381 189.481 66.0302 187.198 65.9233ZM187.198 59.4809C187.981 59.5168 188.763 59.3888 189.495 59.1051C190.226 58.8215 190.89 58.3885 191.444 57.8337C191.982 57.248 192.398 56.5614 192.668 55.8137C192.939 55.0659 193.057 54.2718 193.018 53.4777V43.4481C193.057 42.654 192.939 41.8599 192.668 41.1122C192.398 40.3644 191.982 39.6778 191.444 39.0921C190.89 38.5373 190.226 38.1042 189.495 37.8206C188.763 37.5369 187.981 37.409 187.198 37.4449C186.42 37.4096 185.643 37.538 184.918 37.8218C184.193 38.1055 183.535 38.5383 182.988 39.0921C182.445 39.676 182.023 40.3615 181.747 41.1091C181.47 41.8567 181.345 42.6517 181.377 43.4481V53.4777C181.345 54.2741 181.47 55.0691 181.747 55.8167C182.023 56.5643 182.445 57.2498 182.988 57.8337C183.535 58.3875 184.193 58.8203 184.918 59.104C185.643 59.3878 186.42 59.5162 187.198 59.4809Z" fill="#15467B"/>
<path d="M217.106 46.4496H228.968V53.1117C229.022 55.4613 228.494 57.7877 227.43 59.8836C226.424 61.7499 224.914 63.2969 223.074 64.3493C221.064 65.4378 218.805 65.9805 216.521 65.9233C214.221 65.9861 211.943 65.47 209.895 64.4225C208.042 63.4906 206.512 62.0242 205.502 60.213C204.413 58.2837 203.869 56.0948 203.928 53.8803V43.7775C203.876 41.44 204.405 39.1261 205.465 37.0423C206.471 35.176 207.981 33.6289 209.821 32.5765C211.835 31.5007 214.091 30.9587 216.374 31.0025C218.34 30.9836 220.282 31.4222 222.049 32.2836C223.744 33.1503 225.212 34.4044 226.332 35.9441C227.525 37.5147 228.328 39.3466 228.675 41.2885H221.719C221.387 40.195 220.655 39.2669 219.669 38.6895C218.668 38.1094 217.531 37.8062 216.374 37.811C215.601 37.7716 214.829 37.8982 214.109 38.1823C213.389 38.4664 212.739 38.9016 212.201 39.4582C211.104 40.6663 210.526 42.2569 210.59 43.8874V53.9903C210.559 54.7188 210.691 55.445 210.976 56.1162C211.261 56.7874 211.692 57.3867 212.238 57.8703C213.416 58.9083 214.952 59.4465 216.521 59.371C217.29 59.4037 218.057 59.2776 218.775 59.0005C219.493 58.7234 220.146 58.3013 220.694 57.7605C221.243 57.1673 221.665 56.4688 221.936 55.7075C222.206 54.9461 222.319 54.1377 222.268 53.3313V52.7823H217.106V46.4496Z" fill="#15467B"/>
<path d="M230.139 65.5938L243.354 31.5149H247.454L260.524 65.7402H253.605L245.404 42.3498L237.204 65.7402L230.139 65.5938ZM236.399 60.1031V53.8803H254.337V60.1031H236.399Z" fill="#15467B"/>
<path d="M127.38 107.762C125.055 107.846 122.748 107.329 120.681 106.262C118.838 105.298 117.35 103.772 116.434 101.906C115.431 99.7535 114.942 97.3975 115.006 95.0239V85.6165C114.937 83.2307 115.426 80.8619 116.434 78.6983C117.372 76.8473 118.854 75.3274 120.681 74.3423C122.754 73.2917 125.057 72.7758 127.38 72.8415C129.394 72.8111 131.384 73.2896 133.164 74.2325C134.883 75.1865 136.323 76.5748 137.337 78.2589C138.514 80.2246 139.297 82.4002 139.644 84.6647H132.944C132.747 83.622 132.349 82.6275 131.773 81.7364C131.3 80.9871 130.645 80.37 129.869 79.9428C129.116 79.4986 128.255 79.2706 127.38 79.2838C126.597 79.2362 125.814 79.3626 125.086 79.6537C124.358 79.9448 123.704 80.3936 123.17 80.9677C122.102 82.2732 121.566 83.9332 121.669 85.6165V95.0239C121.566 96.7072 122.102 98.3672 123.17 99.6726C123.712 100.234 124.368 100.672 125.095 100.956C125.822 101.241 126.601 101.365 127.38 101.32C128.736 101.359 130.053 100.859 131.041 99.9289C132.075 98.8206 132.763 97.4335 133.018 95.939H139.717C139.376 98.2105 138.579 100.389 137.374 102.345C136.359 104.029 134.92 105.417 133.201 106.371C131.419 107.344 129.409 107.824 127.38 107.762Z" fill="#15467B"/>
<path d="M155.495 107.762C153.198 107.824 150.926 107.281 148.905 106.188C147.053 105.184 145.538 103.656 144.549 101.796C143.459 99.7609 142.917 97.4779 142.975 95.1704V85.4701C142.914 83.1505 143.456 80.855 144.549 78.8081C145.538 76.9479 147.053 75.4201 148.905 74.4155C150.945 73.3916 153.195 72.8584 155.477 72.8584C157.758 72.8584 160.009 73.3916 162.048 74.4155C163.904 75.4264 165.43 76.9517 166.441 78.8081C167.505 80.8641 168.034 83.1554 167.978 85.4701V95.1704C168.03 97.4729 167.501 99.7513 166.441 101.796C165.43 103.652 163.904 105.177 162.048 106.188C160.039 107.277 157.779 107.819 155.495 107.762ZM155.495 101.32C156.273 101.355 157.05 101.227 157.775 100.943C158.5 100.659 159.157 100.227 159.705 99.6727C160.243 99.087 160.659 98.4004 160.929 97.6526C161.199 96.9049 161.318 96.1108 161.279 95.3167V85.2871C161.32 84.4928 161.202 83.6982 160.932 82.9501C160.661 82.2021 160.244 81.5156 159.705 80.9311C159.157 80.3773 158.5 79.9445 157.775 79.6608C157.05 79.377 156.273 79.2486 155.495 79.2839C154.711 79.248 153.929 79.376 153.198 79.6597C152.467 79.9433 151.803 80.3763 151.248 80.9311C150.709 81.5156 150.292 82.2021 150.021 82.9501C149.751 83.6982 149.633 84.4928 149.674 85.2871V95.3167C149.635 96.1108 149.754 96.9049 150.024 97.6526C150.294 98.4004 150.711 99.087 151.248 99.6727C151.803 100.227 152.467 100.661 153.198 100.944C153.929 101.228 154.711 101.356 155.495 101.32Z" fill="#15467B"/>
<path d="M173.286 107.396V73.2076H181.121L193.86 99.4165L193.274 100.039V73.2076H199.425V107.396H191.481L178.778 81.59L179.363 80.9678V107.396H173.286Z" fill="#15467B"/>
<path d="M216.85 107.762C215.239 107.771 213.632 107.611 212.054 107.287C210.535 106.982 209.06 106.49 207.661 105.822C206.345 105.217 205.115 104.442 204 103.516L207.002 98.2086C208.354 99.332 209.907 100.189 211.578 100.734C213.287 101.319 215.081 101.616 216.887 101.613C218.592 101.706 220.289 101.326 221.792 100.515C222.323 100.217 222.764 99.7803 223.067 99.2517C223.37 98.7231 223.524 98.1222 223.513 97.5131C223.537 97.0939 223.472 96.6743 223.32 96.2827C223.169 95.8911 222.935 95.5368 222.634 95.2436C221.979 94.6825 221.201 94.2814 220.364 94.0722C219.338 93.8121 218.3 93.6044 217.253 93.45L213.226 92.6812C211.936 92.3878 210.701 91.8937 209.565 91.2171C208.391 90.541 207.428 89.5526 206.783 88.3619C206.011 86.8198 205.646 85.1064 205.721 83.3837C205.633 81.9201 205.889 80.4561 206.467 79.1088C207.045 77.7614 207.931 76.5679 209.052 75.6235C211.73 73.6376 215.024 72.6649 218.351 72.8781C220.267 72.8808 222.17 73.1897 223.988 73.7932C225.898 74.4004 227.702 75.302 229.333 76.4654L226.624 81.9195C225.353 81.0193 223.96 80.3046 222.488 79.7964C221.163 79.3038 219.764 79.0438 218.351 79.0278C216.764 78.9355 215.182 79.2771 213.775 80.0161C213.275 80.2783 212.856 80.6731 212.566 81.1574C212.275 81.6417 212.123 82.1967 212.127 82.7614C212.096 83.2237 212.169 83.6871 212.34 84.1178C212.511 84.5484 212.776 84.9354 213.116 85.2505C213.844 85.8646 214.711 86.2917 215.642 86.495C216.667 86.7879 217.765 87.0442 218.973 87.2638C220.296 87.5075 221.603 87.8251 222.89 88.2155C224.183 88.5516 225.418 89.0824 226.551 89.7895C227.651 90.4996 228.546 91.4836 229.15 92.6447C229.832 94.1096 230.159 95.7151 230.102 97.3301C230.175 98.783 229.905 100.233 229.314 101.562C228.722 102.891 227.826 104.062 226.698 104.98C223.834 107.016 220.355 107.998 216.85 107.762Z" fill="#15467B"/>
<path d="M245.88 107.762C244.196 107.874 242.507 107.636 240.919 107.062C239.331 106.489 237.879 105.593 236.655 104.431C235.515 103.158 234.64 101.67 234.081 100.055C233.521 98.4399 233.289 96.7297 233.397 95.0239V73.0612H239.693V95.0239C239.592 96.6973 240.158 98.3428 241.268 99.5995C242.523 100.641 244.103 101.212 245.734 101.212C247.365 101.212 248.945 100.641 250.2 99.5995C250.756 98.9801 251.184 98.2571 251.461 97.472C251.737 96.6869 251.856 95.855 251.811 95.0239V73.0612H258.254V95.0239C258.365 96.7329 258.131 98.4468 257.565 100.063C256.999 101.68 256.113 103.165 254.959 104.431C253.752 105.575 252.324 106.46 250.763 107.032C249.202 107.605 247.541 107.853 245.88 107.762Z" fill="#15467B"/>
<path d="M264.001 107.433V73.2076H270.481V107.433H264.001ZM266.893 107.433V101.064H286.955V107.287L266.893 107.433Z" fill="#15467B"/>
<path d="M284.575 79.3937V73.2076H309.652V79.3937H284.575ZM293.874 107.433V75.9895H300.353V107.433H293.874Z" fill="#15467B"/>
<path d="M318.694 73.2076V107.433H311.995V73.2076H318.694Z" fill="#15467B"/>
<path d="M324.771 107.396V73.2076H332.642L345.381 99.4165L344.832 100.039V73.2076H350.982V107.396H343.075L330.372 81.59L330.921 80.9678V107.396H324.771Z" fill="#15467B"/>
<path d="M370.055 88.2887H381.916V94.9506C381.959 97.3033 381.418 99.63 380.342 101.723C379.349 103.586 377.852 105.134 376.022 106.188C374.002 107.281 371.729 107.824 369.433 107.762C367.133 107.825 364.855 107.309 362.807 106.262C360.975 105.3 359.452 103.841 358.414 102.052C357.342 100.116 356.799 97.9319 356.84 95.7194V85.6165C356.801 83.276 357.342 80.9623 358.414 78.8813C359.404 77.0029 360.917 75.4517 362.77 74.4155C364.776 73.3189 367.038 72.7757 369.323 72.8415C371.276 72.8229 373.207 73.2617 374.961 74.1227C376.673 74.9787 378.155 76.2342 379.28 77.7832C380.46 79.362 381.261 81.1903 381.623 83.1274H374.668C374.324 82.0296 373.579 81.1017 372.581 80.5285C371.591 79.9547 370.467 79.6516 369.323 79.6499C368.545 79.6147 367.768 79.7431 367.043 80.0268C366.318 80.3106 365.66 80.7434 365.113 81.2972C364.026 82.509 363.46 84.1003 363.539 85.7263V95.8292C363.511 96.554 363.64 97.2761 363.918 97.946C364.196 98.6159 364.616 99.2175 365.15 99.7093C366.336 100.734 367.866 101.27 369.433 101.21C370.207 101.243 370.98 101.118 371.705 100.841C372.429 100.564 373.088 100.141 373.643 99.5995C374.191 99.0063 374.614 98.3078 374.884 97.5464C375.155 96.7851 375.268 95.9768 375.217 95.1704V94.6212H370.055V88.2887Z" fill="#15467B"/>
</svg>
