<svg width="86" height="119" viewBox="0 0 86 119" fill="none" xmlns="http://www.w3.org/2000/svg">
<path d="M38.3787 48.1022H56.1477V75.3448H30.3875V56.0991C30.3875 51.6912 33.9606 48.1022 38.3787 48.1022Z" fill="#15467B"/>
<path d="M30.3875 91.0978H56.1718V109.886C56.1718 114.559 52.3814 118.34 47.6977 118.34H38.8615C34.1778 118.34 30.3875 114.559 30.3875 109.886V91.0978Z" fill="#208CCC"/>
<path d="M30.4356 115.739C30.508 115.811 30.5805 115.907 30.6529 115.98L30.4115 115.739L28.7939 114.125L1.51272 86.9065C-0.394548 85.1482 -0.515253 82.2095 1.24716 80.3066C1.34373 80.2103 1.41615 80.1139 1.51272 80.0417L28.7698 52.8473L30.3873 51.2334L30.6288 50.9926C30.5563 51.0648 30.4839 51.1612 30.4115 51.2334C29.3251 52.5101 28.7456 54.148 28.7698 55.81V111.138C28.7698 112.824 29.3492 114.438 30.4356 115.739Z" fill="#15467B"/>
<path d="M84.9981 86.9306L57.7411 114.125L56.1235 115.739L55.8821 115.98C55.9545 115.907 56.0269 115.811 56.0994 115.739C57.1858 114.462 57.7652 112.824 57.7652 111.138V55.8341C57.7652 55.81 57.7652 55.7618 57.7652 55.7377V27.1222L84.9498 0L85.0223 80.0658L84.9981 86.9306Z" fill="#208CCC"/>
</svg>
