<svg width="16" height="16" viewBox="0 0 16 16" fill="none" xmlns="http://www.w3.org/2000/svg">
<path d="M10 4V12C10 12.3956 10.1173 12.7822 10.3371 13.1111C10.5568 13.44 10.8692 13.6964 11.2346 13.8478C11.6001 13.9991 12.0022 14.0387 12.3902 13.9616C12.7781 13.8844 13.1345 13.6939 13.4142 13.4142C13.6939 13.1345 13.8844 12.7781 13.9616 12.3902C14.0387 12.0022 13.9991 11.6001 13.8478 11.2346C13.6964 10.8692 13.44 10.5568 13.1111 10.3371C12.7822 10.1173 12.3956 10 12 10H4C3.60444 10 3.21776 10.1173 2.88886 10.3371C2.55996 10.5568 2.30362 10.8692 2.15224 11.2346C2.00087 11.6001 1.96126 12.0022 2.03843 12.3902C2.1156 12.7781 2.30608 13.1345 2.58579 13.4142C2.86549 13.6939 3.22186 13.8844 3.60982 13.9616C3.99778 14.0387 4.39992 13.9991 4.76537 13.8478C5.13082 13.6964 5.44318 13.44 5.66294 13.1111C5.8827 12.7822 6 12.3956 6 12V4C6 3.60444 5.8827 3.21776 5.66294 2.88886C5.44318 2.55996 5.13082 2.30362 4.76537 2.15224C4.39992 2.00087 3.99778 1.96126 3.60982 2.03843C3.22186 2.1156 2.86549 2.30608 2.58579 2.58579C2.30608 2.86549 2.1156 3.22186 2.03843 3.60982C1.96126 3.99778 2.00087 4.39992 2.15224 4.76537C2.30362 5.13082 2.55996 5.44318 2.88886 5.66294C3.21776 5.8827 3.60444 6 4 6H12C12.3956 6 12.7822 5.8827 13.1111 5.66294C13.44 5.44318 13.6964 5.13082 13.8478 4.76537C13.9991 4.39992 14.0387 3.99778 13.9616 3.60982C13.8844 3.22186 13.6939 2.86549 13.4142 2.58579C13.1345 2.30608 12.7781 2.1156 12.3902 2.03843C12.0022 1.96126 11.6001 2.00087 11.2346 2.15224C10.8692 2.30362 10.5568 2.55996 10.3371 2.88886C10.1173 3.21776 10 3.60444 10 4Z" stroke="#0077FF" stroke-width="1.33" stroke-linecap="round" stroke-linejoin="round"/>
</svg>
