<svg width="14" height="14" viewBox="0 0 14 14" fill="none" xmlns="http://www.w3.org/2000/svg">
<path fill-rule="evenodd" clip-rule="evenodd" d="M3.49988 4.33338C3.8535 4.33338 4.19264 4.1929 4.44268 3.94285C4.69273 3.6928 4.83321 3.35366 4.83321 3.00004C4.83321 2.64642 4.69273 2.30728 4.44268 2.05723C4.19264 1.80718 3.8535 1.66671 3.49988 1.66671C3.14625 1.66671 2.80711 1.80718 2.55707 2.05723C2.30702 2.30728 2.16654 2.64642 2.16654 3.00004C2.16654 3.35366 2.30702 3.6928 2.55707 3.94285C2.80711 4.1929 3.14625 4.33338 3.49988 4.33338ZM4.16654 5.58271C4.79353 5.41889 5.33947 5.03247 5.70241 4.49559C6.06535 3.95872 6.22048 3.3081 6.13883 2.66523C6.05719 2.02235 5.74435 1.43117 5.25873 1.00206C4.77311 0.572955 4.14791 0.335266 3.49988 0.333375C2.85036 0.332733 2.22295 0.569164 1.73539 0.998292C1.24783 1.42742 0.933652 2.01974 0.851822 2.66407C0.769991 3.30841 0.926135 3.96046 1.29095 4.49784C1.65576 5.03521 2.20416 5.42097 2.83321 5.58271V7.66671C2.83321 8.72758 3.25464 9.74499 4.00478 10.4951C4.75493 11.2453 5.77234 11.6667 6.83321 11.6667H7.91721C8.08103 12.2937 8.46745 12.8396 9.00432 13.2026C9.5412 13.5655 10.1918 13.7206 10.8347 13.639C11.4776 13.5574 12.0688 13.2445 12.4979 12.7589C12.927 12.2733 13.1647 11.6481 13.1665 11C13.1672 10.3505 12.9308 9.72312 12.5016 9.23556C12.0725 8.748 11.4802 8.43382 10.8358 8.35199C10.1915 8.27016 9.53946 8.4263 9.00208 8.79111C8.4647 9.15593 8.07894 9.70432 7.91721 10.3334H6.83321C6.12596 10.3334 5.44769 10.0524 4.94759 9.55233C4.44749 9.05223 4.16654 8.37395 4.16654 7.66671V5.58271ZM10.4999 12.3334C10.8535 12.3334 11.1926 12.1929 11.4427 11.9429C11.6927 11.6928 11.8332 11.3537 11.8332 11C11.8332 10.6464 11.6927 10.3073 11.4427 10.0572C11.1926 9.80719 10.8535 9.66671 10.4999 9.66671C10.1463 9.66671 9.80712 9.80719 9.55707 10.0572C9.30702 10.3073 9.16654 10.6464 9.16654 11C9.16654 11.3537 9.30702 11.6928 9.55707 11.9429C9.80712 12.1929 10.1463 12.3334 10.4999 12.3334Z" fill="white"/>
</svg>
